<svg width="163" height="48" viewBox="0 0 163 48" fill="none" xmlns="http://www.w3.org/2000/svg">
<rect width="163" height="48" rx="5" fill="#150C01"/>
<path d="M67.5859 20.1406L64.1875 30H62.1328L66.4141 18.625H67.7266L67.5859 20.1406ZM70.4297 30L67.0234 20.1406L66.875 18.625H68.1953L72.4922 30H70.4297ZM70.2656 25.7812V27.3359H64.0781V25.7812H70.2656ZM75.3281 23.1719V33.25H73.4453V21.5469H75.1797L75.3281 23.1719ZM80.8359 25.6953V25.8594C80.8359 26.474 80.763 27.0443 80.6172 27.5703C80.4766 28.0911 80.2656 28.5469 79.9844 28.9375C79.7083 29.3229 79.3672 29.6224 78.9609 29.8359C78.5547 30.0495 78.0859 30.1562 77.5547 30.1562C77.0286 30.1562 76.5677 30.0599 76.1719 29.8672C75.7812 29.6693 75.4505 29.3906 75.1797 29.0312C74.9089 28.6719 74.6901 28.25 74.5234 27.7656C74.362 27.276 74.2474 26.7396 74.1797 26.1562V25.5234C74.2474 24.9036 74.362 24.3411 74.5234 23.8359C74.6901 23.3307 74.9089 22.8958 75.1797 22.5312C75.4505 22.1667 75.7812 21.8854 76.1719 21.6875C76.5625 21.4896 77.0182 21.3906 77.5391 21.3906C78.0703 21.3906 78.5417 21.4948 78.9531 21.7031C79.3646 21.9062 79.7109 22.1979 79.9922 22.5781C80.2734 22.9531 80.4844 23.4062 80.625 23.9375C80.7656 24.4635 80.8359 25.0495 80.8359 25.6953ZM78.9531 25.8594V25.6953C78.9531 25.3047 78.9167 24.9427 78.8438 24.6094C78.7708 24.2708 78.6562 23.974 78.5 23.7188C78.3438 23.4635 78.1432 23.2656 77.8984 23.125C77.6589 22.9792 77.3698 22.9062 77.0312 22.9062C76.6979 22.9062 76.4115 22.9635 76.1719 23.0781C75.9323 23.1875 75.7318 23.3411 75.5703 23.5391C75.4089 23.737 75.2839 23.9688 75.1953 24.2344C75.1068 24.4948 75.0443 24.7786 75.0078 25.0859V26.6016C75.0703 26.9766 75.1771 27.3203 75.3281 27.6328C75.4792 27.9453 75.6927 28.1953 75.9688 28.3828C76.25 28.5651 76.6094 28.6562 77.0469 28.6562C77.3854 28.6562 77.6745 28.5833 77.9141 28.4375C78.1536 28.2917 78.349 28.0911 78.5 27.8359C78.6562 27.5755 78.7708 27.276 78.8438 26.9375C78.9167 26.599 78.9531 26.2396 78.9531 25.8594ZM84.3281 23.1719V33.25H82.4453V21.5469H84.1797L84.3281 23.1719ZM89.8359 25.6953V25.8594C89.8359 26.474 89.763 27.0443 89.6172 27.5703C89.4766 28.0911 89.2656 28.5469 88.9844 28.9375C88.7083 29.3229 88.3672 29.6224 87.9609 29.8359C87.5547 30.0495 87.0859 30.1562 86.5547 30.1562C86.0286 30.1562 85.5677 30.0599 85.1719 29.8672C84.7812 29.6693 84.4505 29.3906 84.1797 29.0312C83.9089 28.6719 83.6901 28.25 83.5234 27.7656C83.362 27.276 83.2474 26.7396 83.1797 26.1562V25.5234C83.2474 24.9036 83.362 24.3411 83.5234 23.8359C83.6901 23.3307 83.9089 22.8958 84.1797 22.5312C84.4505 22.1667 84.7812 21.8854 85.1719 21.6875C85.5625 21.4896 86.0182 21.3906 86.5391 21.3906C87.0703 21.3906 87.5417 21.4948 87.9531 21.7031C88.3646 21.9062 88.7109 22.1979 88.9922 22.5781C89.2734 22.9531 89.4844 23.4062 89.625 23.9375C89.7656 24.4635 89.8359 25.0495 89.8359 25.6953ZM87.9531 25.8594V25.6953C87.9531 25.3047 87.9167 24.9427 87.8438 24.6094C87.7708 24.2708 87.6562 23.974 87.5 23.7188C87.3438 23.4635 87.1432 23.2656 86.8984 23.125C86.6589 22.9792 86.3698 22.9062 86.0312 22.9062C85.6979 22.9062 85.4115 22.9635 85.1719 23.0781C84.9323 23.1875 84.7318 23.3411 84.5703 23.5391C84.4089 23.737 84.2839 23.9688 84.1953 24.2344C84.1068 24.4948 84.0443 24.7786 84.0078 25.0859V26.6016C84.0703 26.9766 84.1771 27.3203 84.3281 27.6328C84.4792 27.9453 84.6927 28.1953 84.9688 28.3828C85.25 28.5651 85.6094 28.6562 86.0469 28.6562C86.3854 28.6562 86.6745 28.5833 86.9141 28.4375C87.1536 28.2917 87.349 28.0911 87.5 27.8359C87.6562 27.5755 87.7708 27.276 87.8438 26.9375C87.9167 26.599 87.9531 26.2396 87.9531 25.8594ZM101.594 27.0703C101.594 26.8359 101.557 26.6276 101.484 26.4453C101.417 26.263 101.294 26.0964 101.117 25.9453C100.94 25.7943 100.69 25.6484 100.367 25.5078C100.049 25.362 99.6432 25.2135 99.1484 25.0625C98.6068 24.8958 98.1068 24.7109 97.6484 24.5078C97.1953 24.2995 96.7995 24.0599 96.4609 23.7891C96.1224 23.513 95.8594 23.1979 95.6719 22.8438C95.4844 22.4844 95.3906 22.0703 95.3906 21.6016C95.3906 21.138 95.487 20.7161 95.6797 20.3359C95.8776 19.9557 96.1562 19.6276 96.5156 19.3516C96.8802 19.0703 97.3099 18.8542 97.8047 18.7031C98.2995 18.5469 98.8464 18.4688 99.4453 18.4688C100.289 18.4688 101.016 18.625 101.625 18.9375C102.24 19.25 102.711 19.6693 103.039 20.1953C103.372 20.7214 103.539 21.3021 103.539 21.9375H101.594C101.594 21.5625 101.513 21.2318 101.352 20.9453C101.195 20.6536 100.956 20.4245 100.633 20.2578C100.315 20.0911 99.9115 20.0078 99.4219 20.0078C98.9583 20.0078 98.5729 20.0781 98.2656 20.2188C97.9583 20.3594 97.7292 20.5495 97.5781 20.7891C97.4271 21.0286 97.3516 21.2995 97.3516 21.6016C97.3516 21.8151 97.401 22.0104 97.5 22.1875C97.599 22.3594 97.75 22.5208 97.9531 22.6719C98.1562 22.8177 98.4115 22.9557 98.7188 23.0859C99.026 23.2161 99.388 23.3411 99.8047 23.4609C100.435 23.6484 100.984 23.8568 101.453 24.0859C101.922 24.3099 102.312 24.5651 102.625 24.8516C102.938 25.138 103.172 25.4635 103.328 25.8281C103.484 26.1875 103.562 26.5964 103.562 27.0547C103.562 27.5339 103.466 27.9661 103.273 28.3516C103.081 28.7318 102.805 29.0573 102.445 29.3281C102.091 29.5938 101.664 29.7995 101.164 29.9453C100.669 30.0859 100.117 30.1562 99.5078 30.1562C98.9609 30.1562 98.4219 30.0833 97.8906 29.9375C97.3646 29.7917 96.8854 29.5703 96.4531 29.2734C96.0208 28.9714 95.6771 28.5964 95.4219 28.1484C95.1667 27.6953 95.0391 27.1667 95.0391 26.5625H97C97 26.9323 97.0625 27.2474 97.1875 27.5078C97.3177 27.7682 97.4974 27.9818 97.7266 28.1484C97.9557 28.3099 98.2214 28.4297 98.5234 28.5078C98.8307 28.5859 99.1589 28.625 99.5078 28.625C99.9661 28.625 100.349 28.5599 100.656 28.4297C100.969 28.2995 101.203 28.1172 101.359 27.8828C101.516 27.6484 101.594 27.3776 101.594 27.0703ZM108.984 21.5469V22.9219H104.219V21.5469H108.984ZM105.594 19.4766H107.477V27.6641C107.477 27.9245 107.513 28.125 107.586 28.2656C107.664 28.401 107.771 28.4922 107.906 28.5391C108.042 28.5859 108.201 28.6094 108.383 28.6094C108.513 28.6094 108.638 28.6016 108.758 28.5859C108.878 28.5703 108.974 28.5547 109.047 28.5391L109.055 29.9766C108.898 30.0234 108.716 30.0651 108.508 30.1016C108.305 30.138 108.07 30.1562 107.805 30.1562C107.372 30.1562 106.99 30.0807 106.656 29.9297C106.323 29.7734 106.062 29.5208 105.875 29.1719C105.688 28.8229 105.594 28.3594 105.594 27.7812V19.4766ZM109.891 25.8672V25.6875C109.891 25.0781 109.979 24.513 110.156 23.9922C110.333 23.4661 110.589 23.0104 110.922 22.625C111.26 22.2344 111.672 21.9323 112.156 21.7188C112.646 21.5 113.198 21.3906 113.812 21.3906C114.432 21.3906 114.984 21.5 115.469 21.7188C115.958 21.9323 116.372 22.2344 116.711 22.625C117.049 23.0104 117.307 23.4661 117.484 23.9922C117.661 24.513 117.75 25.0781 117.75 25.6875V25.8672C117.75 26.4766 117.661 27.0417 117.484 27.5625C117.307 28.0833 117.049 28.5391 116.711 28.9297C116.372 29.3151 115.961 29.6172 115.477 29.8359C114.992 30.0495 114.443 30.1562 113.828 30.1562C113.208 30.1562 112.654 30.0495 112.164 29.8359C111.68 29.6172 111.268 29.3151 110.93 28.9297C110.591 28.5391 110.333 28.0833 110.156 27.5625C109.979 27.0417 109.891 26.4766 109.891 25.8672ZM111.773 25.6875V25.8672C111.773 26.2474 111.812 26.6068 111.891 26.9453C111.969 27.2839 112.091 27.5807 112.258 27.8359C112.424 28.0911 112.638 28.2917 112.898 28.4375C113.159 28.5833 113.469 28.6562 113.828 28.6562C114.177 28.6562 114.479 28.5833 114.734 28.4375C114.995 28.2917 115.208 28.0911 115.375 27.8359C115.542 27.5807 115.664 27.2839 115.742 26.9453C115.826 26.6068 115.867 26.2474 115.867 25.8672V25.6875C115.867 25.3125 115.826 24.9583 115.742 24.625C115.664 24.2865 115.539 23.987 115.367 23.7266C115.201 23.4661 114.987 23.263 114.727 23.1172C114.471 22.9661 114.167 22.8906 113.812 22.8906C113.458 22.8906 113.151 22.9661 112.891 23.1172C112.635 23.263 112.424 23.4661 112.258 23.7266C112.091 23.987 111.969 24.2865 111.891 24.625C111.812 24.9583 111.773 25.3125 111.773 25.6875ZM121.219 23.1562V30H119.336V21.5469H121.133L121.219 23.1562ZM123.805 21.4922L123.789 23.2422C123.674 23.2214 123.549 23.2057 123.414 23.1953C123.284 23.1849 123.154 23.1797 123.023 23.1797C122.701 23.1797 122.417 23.2266 122.172 23.3203C121.927 23.4089 121.721 23.5391 121.555 23.7109C121.393 23.8776 121.268 24.0807 121.18 24.3203C121.091 24.5599 121.039 24.8281 121.023 25.125L120.594 25.1562C120.594 24.625 120.646 24.1328 120.75 23.6797C120.854 23.2266 121.01 22.8281 121.219 22.4844C121.432 22.1406 121.698 21.8724 122.016 21.6797C122.339 21.487 122.711 21.3906 123.133 21.3906C123.247 21.3906 123.37 21.401 123.5 21.4219C123.635 21.4427 123.737 21.4661 123.805 21.4922ZM128.555 30.1562C127.93 30.1562 127.365 30.0547 126.859 29.8516C126.359 29.6432 125.932 29.3542 125.578 28.9844C125.229 28.6146 124.961 28.1797 124.773 27.6797C124.586 27.1797 124.492 26.6406 124.492 26.0625V25.75C124.492 25.0885 124.589 24.4896 124.781 23.9531C124.974 23.4167 125.242 22.9583 125.586 22.5781C125.93 22.1927 126.336 21.8984 126.805 21.6953C127.273 21.4922 127.781 21.3906 128.328 21.3906C128.932 21.3906 129.461 21.4922 129.914 21.6953C130.367 21.8984 130.742 22.1849 131.039 22.5547C131.341 22.9193 131.565 23.3542 131.711 23.8594C131.862 24.3646 131.938 24.9219 131.938 25.5312V26.3359H125.406V24.9844H130.078V24.8359C130.068 24.4974 130 24.1797 129.875 23.8828C129.755 23.5859 129.57 23.3464 129.32 23.1641C129.07 22.9818 128.737 22.8906 128.32 22.8906C128.008 22.8906 127.729 22.9583 127.484 23.0938C127.245 23.224 127.044 23.4141 126.883 23.6641C126.721 23.9141 126.596 24.2161 126.508 24.5703C126.424 24.9193 126.383 25.3125 126.383 25.75V26.0625C126.383 26.4323 126.432 26.776 126.531 27.0938C126.635 27.4062 126.786 27.6797 126.984 27.9141C127.182 28.1484 127.422 28.3333 127.703 28.4688C127.984 28.599 128.305 28.6641 128.664 28.6641C129.117 28.6641 129.521 28.5729 129.875 28.3906C130.229 28.2083 130.536 27.9505 130.797 27.6172L131.789 28.5781C131.607 28.8438 131.37 29.099 131.078 29.3438C130.786 29.5833 130.43 29.7786 130.008 29.9297C129.591 30.0807 129.107 30.1562 128.555 30.1562Z" fill="white"/>
<g clip-path="url(#clip0_1_134)">
<path d="M44.8716 15.1197C45.6998 14.1188 46.2818 12.7593 46.2526 11.3746C46.2476 11.1421 46.0355 10.9694 45.8056 11.0045C44.5905 11.1902 43.2323 11.9512 42.3916 12.9354C41.6167 13.8314 40.929 15.2237 40.9807 16.6034C40.9885 16.8113 41.1641 16.977 41.3721 16.9711C42.7132 16.9331 44.0372 16.1301 44.8716 15.1197Z" fill="#D6D6D8"/>
<path d="M42.0272 16.6034C41.947 14.4644 43.5608 11.9661 46.1802 11.1606C46.098 11.0476 45.9558 10.9816 45.8057 11.0045C44.5907 11.1902 43.2324 11.9511 42.3917 12.9354C41.6168 13.8314 40.9291 15.2237 40.9808 16.6034C40.9886 16.8113 41.1643 16.977 41.3722 16.9711C41.6323 16.9637 41.8916 16.9273 42.1469 16.8665C42.0765 16.7998 42.031 16.7068 42.0272 16.6034Z" fill="#C2C2C4"/>
<path d="M51.3444 29.9265C50.5025 29.5026 48.179 28.0398 48.1503 24.7958C48.1257 22.1403 49.8878 20.5962 50.6374 20.0571C50.8153 19.929 50.8544 19.6785 50.7192 19.506C50.0963 18.7121 49.3681 18.2028 48.6685 17.8727C48.6689 17.8726 48.6694 17.8725 48.6698 17.8725C48.5792 17.8296 48.4241 17.7617 48.2999 17.7128C44.7798 16.3271 42.5614 18.4511 41.2175 18.4511C40.1887 18.4511 38.601 17.2885 36.9188 17.3203C34.7083 17.3524 32.6723 18.6061 31.5324 20.5846C29.7836 23.62 30.3603 27.7694 31.7229 31.0033C31.7229 31.0033 31.7228 31.0033 31.7228 31.0034C31.7577 31.0861 31.8132 31.2148 31.8596 31.3188C31.8596 31.3187 31.8596 31.3186 31.8597 31.3185C32.2544 32.205 32.7063 33.015 33.1824 33.7036C34.2755 35.2837 35.5796 37.0637 37.2932 36.9982C38.9424 36.9328 39.5659 35.9319 41.5589 35.9319C43.5507 35.9319 44.1126 36.9982 45.8564 36.9665C47.6316 36.9328 48.7557 35.3541 49.8414 33.7665C50.7969 32.3715 51.3241 31.01 51.5353 30.397C51.5983 30.2143 51.5171 30.0134 51.3444 29.9265Z" fill="#D6D6D8"/>
<path d="M34.2287 33.7037C33.7526 33.0151 33.3007 32.2051 32.906 31.3186C32.9059 31.3187 32.9059 31.3188 32.9059 31.3189C32.8596 31.215 32.8045 31.0873 32.7691 31.0035C32.7691 31.0035 32.7692 31.0034 32.7692 31.0034C31.4151 27.7895 30.8237 23.6308 32.5788 20.5847C33.6315 18.7576 35.4487 17.5493 37.4616 17.3498C37.2821 17.3282 37.1011 17.317 36.9188 17.3204C34.7084 17.3525 32.6723 18.6062 31.5325 20.5847C29.7837 23.6201 30.3604 27.7695 31.7229 31.0034C31.7229 31.0034 31.7228 31.0035 31.7228 31.0035C31.7577 31.0862 31.8133 31.2149 31.8596 31.3189C31.8596 31.3188 31.8597 31.3187 31.8597 31.3186C32.2544 32.2051 32.7063 33.0151 33.1823 33.7037C34.2755 35.2838 35.5796 37.0638 37.2931 36.9984C37.4617 36.9916 37.6191 36.9748 37.7689 36.9506C36.3313 36.6591 35.1971 35.1035 34.2287 33.7037Z" fill="#C2C2C4"/>
</g>
<defs>
<clipPath id="clip0_1_134">
<rect width="26" height="26" fill="white" transform="translate(28 11)"/>
</clipPath>
</defs>
</svg>
