<svg width="179" height="48" viewBox="0 0 179 48" fill="none" xmlns="http://www.w3.org/2000/svg">
<rect opacity="0.1" x="0.75" y="0.75" width="177.5" height="46.5" rx="4.25" stroke="#150C01" stroke-width="1.5"/>
<path d="M72.8906 24.1875V28.5312C72.7292 28.7448 72.4766 28.9792 72.1328 29.2344C71.7943 29.4844 71.3438 29.7005 70.7812 29.8828C70.2188 30.0651 69.5182 30.1562 68.6797 30.1562C67.9661 30.1562 67.3125 30.0365 66.7188 29.7969C66.125 29.5521 65.612 29.1953 65.1797 28.7266C64.7526 28.2578 64.4219 27.6875 64.1875 27.0156C63.9531 26.3385 63.8359 25.5677 63.8359 24.7031V23.9141C63.8359 23.0547 63.9427 22.2891 64.1562 21.6172C64.375 20.9401 64.6875 20.3672 65.0938 19.8984C65.5 19.4297 65.9896 19.0755 66.5625 18.8359C67.1406 18.5911 67.7943 18.4688 68.5234 18.4688C69.4557 18.4688 70.2266 18.625 70.8359 18.9375C71.4505 19.2448 71.9245 19.6719 72.2578 20.2188C72.5911 20.7656 72.8021 21.3906 72.8906 22.0938H70.9688C70.9062 21.6979 70.7839 21.3438 70.6016 21.0312C70.4245 20.7188 70.1693 20.474 69.8359 20.2969C69.5078 20.1146 69.0807 20.0234 68.5547 20.0234C68.1016 20.0234 67.7031 20.1094 67.3594 20.2812C67.0156 20.4531 66.7292 20.7057 66.5 21.0391C66.276 21.3724 66.1068 21.7786 65.9922 22.2578C65.8776 22.737 65.8203 23.2839 65.8203 23.8984V24.7031C65.8203 25.3281 65.8854 25.8828 66.0156 26.3672C66.151 26.8516 66.3438 27.2604 66.5938 27.5938C66.849 27.9271 67.1589 28.1797 67.5234 28.3516C67.888 28.5182 68.2995 28.6016 68.7578 28.6016C69.2057 28.6016 69.5729 28.5651 69.8594 28.4922C70.1458 28.4141 70.3724 28.3229 70.5391 28.2188C70.7109 28.1094 70.8438 28.0052 70.9375 27.9062V25.6484H68.5703V24.1875H72.8906ZM74.5156 25.8672V25.6875C74.5156 25.0781 74.6042 24.513 74.7812 23.9922C74.9583 23.4661 75.2135 23.0104 75.5469 22.625C75.8854 22.2344 76.2969 21.9323 76.7812 21.7188C77.2708 21.5 77.8229 21.3906 78.4375 21.3906C79.0573 21.3906 79.6094 21.5 80.0938 21.7188C80.5833 21.9323 80.9974 22.2344 81.3359 22.625C81.6745 23.0104 81.9323 23.4661 82.1094 23.9922C82.2865 24.513 82.375 25.0781 82.375 25.6875V25.8672C82.375 26.4766 82.2865 27.0417 82.1094 27.5625C81.9323 28.0833 81.6745 28.5391 81.3359 28.9297C80.9974 29.3151 80.5859 29.6172 80.1016 29.8359C79.6172 30.0495 79.0677 30.1562 78.4531 30.1562C77.8333 30.1562 77.2786 30.0495 76.7891 29.8359C76.3047 29.6172 75.8932 29.3151 75.5547 28.9297C75.2161 28.5391 74.9583 28.0833 74.7812 27.5625C74.6042 27.0417 74.5156 26.4766 74.5156 25.8672ZM76.3984 25.6875V25.8672C76.3984 26.2474 76.4375 26.6068 76.5156 26.9453C76.5938 27.2839 76.7161 27.5807 76.8828 27.8359C77.0495 28.0911 77.263 28.2917 77.5234 28.4375C77.7839 28.5833 78.0938 28.6562 78.4531 28.6562C78.8021 28.6562 79.1042 28.5833 79.3594 28.4375C79.6198 28.2917 79.8333 28.0911 80 27.8359C80.1667 27.5807 80.2891 27.2839 80.3672 26.9453C80.4505 26.6068 80.4922 26.2474 80.4922 25.8672V25.6875C80.4922 25.3125 80.4505 24.9583 80.3672 24.625C80.2891 24.2865 80.1641 23.987 79.9922 23.7266C79.8255 23.4661 79.612 23.263 79.3516 23.1172C79.0964 22.9661 78.7917 22.8906 78.4375 22.8906C78.0833 22.8906 77.776 22.9661 77.5156 23.1172C77.2604 23.263 77.0495 23.4661 76.8828 23.7266C76.7161 23.987 76.5938 24.2865 76.5156 24.625C76.4375 24.9583 76.3984 25.3125 76.3984 25.6875ZM83.5938 25.8672V25.6875C83.5938 25.0781 83.6823 24.513 83.8594 23.9922C84.0365 23.4661 84.2917 23.0104 84.625 22.625C84.9635 22.2344 85.375 21.9323 85.8594 21.7188C86.349 21.5 86.901 21.3906 87.5156 21.3906C88.1354 21.3906 88.6875 21.5 89.1719 21.7188C89.6615 21.9323 90.0755 22.2344 90.4141 22.625C90.7526 23.0104 91.0104 23.4661 91.1875 23.9922C91.3646 24.513 91.4531 25.0781 91.4531 25.6875V25.8672C91.4531 26.4766 91.3646 27.0417 91.1875 27.5625C91.0104 28.0833 90.7526 28.5391 90.4141 28.9297C90.0755 29.3151 89.6641 29.6172 89.1797 29.8359C88.6953 30.0495 88.1458 30.1562 87.5312 30.1562C86.9115 30.1562 86.3568 30.0495 85.8672 29.8359C85.3828 29.6172 84.9714 29.3151 84.6328 28.9297C84.2943 28.5391 84.0365 28.0833 83.8594 27.5625C83.6823 27.0417 83.5938 26.4766 83.5938 25.8672ZM85.4766 25.6875V25.8672C85.4766 26.2474 85.5156 26.6068 85.5938 26.9453C85.6719 27.2839 85.7943 27.5807 85.9609 27.8359C86.1276 28.0911 86.3411 28.2917 86.6016 28.4375C86.862 28.5833 87.1719 28.6562 87.5312 28.6562C87.8802 28.6562 88.1823 28.5833 88.4375 28.4375C88.6979 28.2917 88.9115 28.0911 89.0781 27.8359C89.2448 27.5807 89.3672 27.2839 89.4453 26.9453C89.5286 26.6068 89.5703 26.2474 89.5703 25.8672V25.6875C89.5703 25.3125 89.5286 24.9583 89.4453 24.625C89.3672 24.2865 89.2422 23.987 89.0703 23.7266C88.9036 23.4661 88.6901 23.263 88.4297 23.1172C88.1745 22.9661 87.8698 22.8906 87.5156 22.8906C87.1615 22.8906 86.8542 22.9661 86.5938 23.1172C86.3385 23.263 86.1276 23.4661 85.9609 23.7266C85.7943 23.987 85.6719 24.2865 85.5938 24.625C85.5156 24.9583 85.4766 25.3125 85.4766 25.6875ZM98.4453 21.5469H100.156V29.7656C100.156 30.526 99.9948 31.1719 99.6719 31.7031C99.349 32.2344 98.8984 32.638 98.3203 32.9141C97.7422 33.1953 97.0729 33.3359 96.3125 33.3359C95.9896 33.3359 95.6302 33.2891 95.2344 33.1953C94.8438 33.1016 94.4635 32.9505 94.0938 32.7422C93.7292 32.5391 93.4245 32.2708 93.1797 31.9375L94.0625 30.8281C94.3646 31.1875 94.6979 31.4505 95.0625 31.6172C95.4271 31.7839 95.8099 31.8672 96.2109 31.8672C96.6432 31.8672 97.0104 31.7865 97.3125 31.625C97.6198 31.4688 97.8568 31.237 98.0234 30.9297C98.1901 30.6224 98.2734 30.2474 98.2734 29.8047V23.4609L98.4453 21.5469ZM92.7031 25.8672V25.7031C92.7031 25.0625 92.7812 24.4792 92.9375 23.9531C93.0938 23.4219 93.3177 22.9661 93.6094 22.5859C93.901 22.2005 94.2552 21.9062 94.6719 21.7031C95.0885 21.4948 95.5599 21.3906 96.0859 21.3906C96.6328 21.3906 97.099 21.4896 97.4844 21.6875C97.875 21.8854 98.2005 22.1693 98.4609 22.5391C98.7214 22.9036 98.9245 23.3411 99.0703 23.8516C99.2214 24.3568 99.3333 24.9193 99.4062 25.5391V26.0625C99.3385 26.6667 99.224 27.2188 99.0625 27.7188C98.901 28.2188 98.6875 28.651 98.4219 29.0156C98.1562 29.3802 97.8281 29.6615 97.4375 29.8594C97.0521 30.0573 96.5964 30.1562 96.0703 30.1562C95.5547 30.1562 95.0885 30.0495 94.6719 29.8359C94.2604 29.6224 93.9062 29.3229 93.6094 28.9375C93.3177 28.5521 93.0938 28.099 92.9375 27.5781C92.7812 27.0521 92.7031 26.4818 92.7031 25.8672ZM94.5859 25.7031V25.8672C94.5859 26.2526 94.6224 26.612 94.6953 26.9453C94.7734 27.2786 94.8906 27.5729 95.0469 27.8281C95.2083 28.0781 95.4115 28.276 95.6562 28.4219C95.9062 28.5625 96.2005 28.6328 96.5391 28.6328C96.9818 28.6328 97.3438 28.5391 97.625 28.3516C97.9115 28.1641 98.1302 27.9115 98.2812 27.5938C98.4375 27.2708 98.5469 26.9115 98.6094 26.5156V25.1016C98.5781 24.7943 98.513 24.5078 98.4141 24.2422C98.3203 23.9766 98.1927 23.7448 98.0312 23.5469C97.8698 23.3438 97.6667 23.1875 97.4219 23.0781C97.1771 22.9635 96.888 22.9062 96.5547 22.9062C96.2161 22.9062 95.9219 22.9792 95.6719 23.125C95.4219 23.2708 95.2161 23.4714 95.0547 23.7266C94.8984 23.9818 94.7812 24.2786 94.7031 24.6172C94.625 24.9557 94.5859 25.3177 94.5859 25.7031ZM104.125 18V30H102.234V18H104.125ZM109.914 30.1562C109.289 30.1562 108.724 30.0547 108.219 29.8516C107.719 29.6432 107.292 29.3542 106.938 28.9844C106.589 28.6146 106.32 28.1797 106.133 27.6797C105.945 27.1797 105.852 26.6406 105.852 26.0625V25.75C105.852 25.0885 105.948 24.4896 106.141 23.9531C106.333 23.4167 106.602 22.9583 106.945 22.5781C107.289 22.1927 107.695 21.8984 108.164 21.6953C108.633 21.4922 109.141 21.3906 109.688 21.3906C110.292 21.3906 110.82 21.4922 111.273 21.6953C111.727 21.8984 112.102 22.1849 112.398 22.5547C112.701 22.9193 112.924 23.3542 113.07 23.8594C113.221 24.3646 113.297 24.9219 113.297 25.5312V26.3359H106.766V24.9844H111.438V24.8359C111.427 24.4974 111.359 24.1797 111.234 23.8828C111.115 23.5859 110.93 23.3464 110.68 23.1641C110.43 22.9818 110.096 22.8906 109.68 22.8906C109.367 22.8906 109.089 22.9583 108.844 23.0938C108.604 23.224 108.404 23.4141 108.242 23.6641C108.081 23.9141 107.956 24.2161 107.867 24.5703C107.784 24.9193 107.742 25.3125 107.742 25.75V26.0625C107.742 26.4323 107.792 26.776 107.891 27.0938C107.995 27.4062 108.146 27.6797 108.344 27.9141C108.542 28.1484 108.781 28.3333 109.062 28.4688C109.344 28.599 109.664 28.6641 110.023 28.6641C110.477 28.6641 110.88 28.5729 111.234 28.3906C111.589 28.2083 111.896 27.9505 112.156 27.6172L113.148 28.5781C112.966 28.8438 112.729 29.099 112.438 29.3438C112.146 29.5833 111.789 29.7786 111.367 29.9297C110.951 30.0807 110.466 30.1562 109.914 30.1562ZM123.258 25.7578H120.297V24.2031H123.258C123.773 24.2031 124.19 24.1198 124.508 23.9531C124.826 23.7865 125.057 23.5573 125.203 23.2656C125.354 22.9688 125.43 22.6302 125.43 22.25C125.43 21.8906 125.354 21.5547 125.203 21.2422C125.057 20.9245 124.826 20.6693 124.508 20.4766C124.19 20.2839 123.773 20.1875 123.258 20.1875H120.898V30H118.938V18.625H123.258C124.138 18.625 124.885 18.7812 125.5 19.0938C126.12 19.401 126.591 19.8281 126.914 20.375C127.237 20.9167 127.398 21.5365 127.398 22.2344C127.398 22.9688 127.237 23.599 126.914 24.125C126.591 24.651 126.12 25.0547 125.5 25.3359C124.885 25.6172 124.138 25.7578 123.258 25.7578ZM130.984 18V30H129.094V18H130.984ZM137.812 28.3047V24.2734C137.812 23.9714 137.758 23.7109 137.648 23.4922C137.539 23.2734 137.372 23.1042 137.148 22.9844C136.93 22.8646 136.654 22.8047 136.32 22.8047C136.013 22.8047 135.747 22.8568 135.523 22.9609C135.299 23.0651 135.125 23.2057 135 23.3828C134.875 23.5599 134.812 23.7604 134.812 23.9844H132.938C132.938 23.651 133.018 23.3281 133.18 23.0156C133.341 22.7031 133.576 22.4245 133.883 22.1797C134.19 21.9349 134.557 21.7422 134.984 21.6016C135.411 21.4609 135.891 21.3906 136.422 21.3906C137.057 21.3906 137.62 21.4974 138.109 21.7109C138.604 21.9245 138.992 22.2474 139.273 22.6797C139.56 23.1068 139.703 23.6432 139.703 24.2891V28.0469C139.703 28.4323 139.729 28.7786 139.781 29.0859C139.839 29.388 139.919 29.651 140.023 29.875V30H138.094C138.005 29.7969 137.935 29.5391 137.883 29.2266C137.836 28.9089 137.812 28.6016 137.812 28.3047ZM138.086 24.8594L138.102 26.0234H136.75C136.401 26.0234 136.094 26.0573 135.828 26.125C135.562 26.1875 135.341 26.2812 135.164 26.4062C134.987 26.5312 134.854 26.6823 134.766 26.8594C134.677 27.0365 134.633 27.237 134.633 27.4609C134.633 27.6849 134.685 27.8906 134.789 28.0781C134.893 28.2604 135.044 28.4036 135.242 28.5078C135.445 28.612 135.69 28.6641 135.977 28.6641C136.362 28.6641 136.698 28.5859 136.984 28.4297C137.276 28.2682 137.505 28.0729 137.672 27.8438C137.839 27.6094 137.927 27.388 137.938 27.1797L138.547 28.0156C138.484 28.2292 138.378 28.4583 138.227 28.7031C138.076 28.9479 137.878 29.1823 137.633 29.4062C137.393 29.625 137.104 29.8047 136.766 29.9453C136.432 30.0859 136.047 30.1562 135.609 30.1562C135.057 30.1562 134.565 30.0469 134.133 29.8281C133.701 29.6042 133.362 29.3047 133.117 28.9297C132.872 28.5495 132.75 28.1198 132.75 27.6406C132.75 27.1927 132.833 26.7969 133 26.4531C133.172 26.1042 133.422 25.8125 133.75 25.5781C134.083 25.3438 134.49 25.1667 134.969 25.0469C135.448 24.9219 135.995 24.8594 136.609 24.8594H138.086ZM144 29.0781L146.297 21.5469H148.312L144.922 31.2891C144.844 31.4974 144.742 31.724 144.617 31.9688C144.492 32.2135 144.328 32.4453 144.125 32.6641C143.927 32.888 143.68 33.0677 143.383 33.2031C143.086 33.3438 142.727 33.4141 142.305 33.4141C142.138 33.4141 141.977 33.3984 141.82 33.3672C141.669 33.3411 141.526 33.3125 141.391 33.2812L141.383 31.8438C141.435 31.849 141.497 31.8542 141.57 31.8594C141.648 31.8646 141.711 31.8672 141.758 31.8672C142.07 31.8672 142.331 31.8281 142.539 31.75C142.747 31.6771 142.917 31.5573 143.047 31.3906C143.182 31.224 143.297 31 143.391 30.7188L144 29.0781ZM142.703 21.5469L144.711 27.875L145.047 29.8594L143.742 30.1953L140.672 21.5469H142.703Z" fill="#150C01"/>
<g clip-path="url(#clip0_1_147)">
<path d="M47.4248 24.0001L31.4113 11.5775C30.7981 12.057 30.3851 12.8019 30.3851 13.69L30.3851 34.3102C30.3851 35.1983 30.7981 35.9432 31.4113 36.4221L47.4248 24.0001Z" fill="#9DC6FB"/>
<path d="M52.2717 21.674L48.397 19.4367L45.0009 19.8614L43.8344 24L44.4268 27.9623L48.397 28.5627L52.2717 26.3261C54.0626 25.2922 54.0626 22.7079 52.2717 21.674Z" fill="#FFE07D"/>
<path d="M48.3967 19.4368L34.414 11.3639C33.3923 10.7744 32.2254 10.9413 31.4115 11.5774L43.8341 24.0001L48.3967 19.4368Z" fill="#DD5790"/>
<path d="M48.3967 28.5628L43.8341 24.0001L31.4115 36.4221C32.2254 37.059 33.3923 37.2258 34.414 36.6363L48.3967 28.5628Z" fill="#95D6A4"/>
<path d="M33.4125 13.69C33.4125 13.5095 33.4292 13.3353 33.4616 13.1679L31.4114 11.5775C30.7983 12.0568 30.3851 12.8017 30.3851 13.69L30.3851 34.3102C30.3851 35.1979 30.7984 35.9429 31.4114 36.4221L33.4616 34.8318C33.4292 34.6644 33.4125 34.4901 33.4125 34.3102V13.69Z" fill="#80B4FB"/>
<path d="M34.5922 11.4661L34.4143 11.3636C33.3926 10.7745 32.2255 10.9414 31.4115 11.5775L33.4146 13.5806C33.447 12.7405 33.8509 12.0368 34.4384 11.5775H34.4389C34.4886 11.5388 34.5399 11.5012 34.5922 11.4661Z" fill="#DA387D"/>
<path d="M34.4389 36.4221L34.4394 36.4211L34.4384 36.4221C33.8504 35.9628 33.447 35.2586 33.4146 34.419L31.4115 36.4221C32.2255 37.0588 33.3926 37.2256 34.4143 36.6361L34.5922 36.5335C34.5399 36.4985 34.4886 36.4608 34.4389 36.4221Z" fill="#78C2A4"/>
</g>
<defs>
<clipPath id="clip0_1_147">
<rect width="26" height="26" fill="white" transform="matrix(1 0 0 -1 29 37)"/>
</clipPath>
</defs>
</svg>
